<?xml version="1.0" standalone="no"?>
<!DOCTYPE svg PUBLIC "-//W3C//DTD SVG 20010904//EN"
 "http://www.w3.org/TR/2001/REC-SVG-20010904/DTD/svg10.dtd">
<svg version="1.0" xmlns="http://www.w3.org/2000/svg"
 width="1500.000000pt" height="418.000000pt" viewBox="0 0 1500.000000 418.000000"
 preserveAspectRatio="xMidYMid meet">
<metadata>
Created by potrace 1.16, written by Peter Selinger 2001-2019
</metadata>
<g transform="translate(0.000000,418.000000) scale(0.100000,-0.100000)"
fill="#000000" stroke="none">
<path d="M7410 3445 l0 -735 -57 39 c-135 91 -329 171 -514 213 -90 20 -131
23 -304 23 -172 0 -214 -3 -304 -23 -288 -65 -526 -191 -728 -386 -270 -259
-415 -554 -459 -929 -14 -121 -15 -160 -4 -267 37 -383 176 -686 435 -945 204
-205 445 -339 729 -407 80 -19 120 -22 326 -23 256 0 298 6 485 67 510 167
898 618 994 1157 21 112 21 146 21 1533 l0 1418 -310 0 -310 0 0 -735z m-635
-1099 c193 -58 373 -188 484 -349 45 -66 105 -198 126 -277 25 -96 31 -287 12
-385 -52 -278 -230 -510 -482 -632 -136 -65 -225 -85 -380 -87 -246 -1 -439
75 -618 244 -140 131 -232 313 -264 519 -14 89 -15 119 -4 202 20 167 62 283
145 408 109 162 273 286 464 350 96 33 157 40 297 37 105 -3 147 -9 220 -30z"/>
<path d="M12661 4170 c-251 -35 -558 -146 -776 -280 -505 -310 -850 -815 -956
-1399 -27 -145 -37 -451 -20 -585 35 -267 89 -452 201 -681 304 -626 911
-1053 1614 -1136 128 -15 462 -6 576 15 337 63 636 193 893 388 101 77 269
238 349 335 205 251 355 565 426 893 25 119 27 138 27 410 0 236 -3 301 -18
375 -86 426 -273 780 -570 1079 -291 292 -637 479 -1057 568 -78 16 -142 20
-360 23 -146 2 -294 0 -329 -5z m1385 -1045 c69 -34 147 -119 170 -187 27 -77
24 -180 -7 -246 -29 -64 -1368 -1723 -1386 -1717 -21 7 -967 707 -1011 749
-24 23 -56 64 -70 91 -24 45 -27 61 -27 150 0 89 3 106 27 150 32 62 103 129
166 158 66 30 198 31 262 1 25 -12 155 -103 290 -202 135 -100 248 -180 252
-179 4 1 222 267 485 592 511 630 518 638 627 664 65 16 163 5 222 -24z"/>
<path d="M1325 2989 c-536 -57 -1022 -426 -1223 -931 -85 -213 -107 -350 -99
-623 4 -170 8 -202 35 -305 36 -135 57 -191 118 -312 200 -400 571 -687 1018
-789 118 -27 383 -37 523 -19 128 16 307 68 427 124 456 213 773 633 852 1129
21 129 15 424 -11 537 -45 201 -137 411 -252 573 -32 45 -105 129 -163 187
-324 324 -763 477 -1225 429z m405 -639 c204 -58 384 -191 500 -367 185 -281
196 -633 29 -930 -60 -107 -215 -262 -322 -322 -426 -240 -953 -101 -1205 317
-85 140 -117 264 -116 452 0 171 20 259 90 396 123 241 340 408 609 468 100
22 313 15 415 -14z"/>
<path d="M4720 2989 c-213 -27 -479 -128 -642 -245 l-48 -34 0 110 0 110 -305
0 -305 0 0 -1425 0 -1425 305 0 305 0 0 1004 0 1003 53 50 c100 94 241 171
382 209 108 29 343 27 448 -4 43 -13 82 -22 88 -20 11 4 289 604 289 624 0 40
-373 68 -570 43z"/>
<path d="M9940 2994 c-232 -30 -461 -111 -650 -232 l-65 -41 -5 102 -5 102
-307 3 -308 2 0 -1425 0 -1425 310 0 310 0 2 1012 3 1012 70 59 c165 138 354
207 570 207 103 0 202 -15 281 -44 l42 -14 67 146 c37 81 103 225 147 320 44
96 78 175 76 177 -1 2 -37 11 -78 20 -74 16 -383 29 -460 19z"/>
</g>
</svg>
