<?xml version="1.0" encoding="UTF-8" standalone="no"?>
<svg width="745px" height="231px" viewBox="0 0 745 231" version="1.1" xmlns="http://www.w3.org/2000/svg" xmlns:xlink="http://www.w3.org/1999/xlink">
    <!-- Generator: Sketch 47.1 (45422) - http://www.bohemiancoding.com/sketch -->
    <title>AymaraPeru</title>
    <desc>Created with Sketch.</desc>
    <defs>
        <polygon id="path-1" points="744.744 0.03225 744.744 146.0585 0.000102779933 146.0585 0.000102779933 0.03225"></polygon>
    </defs>
    <g id="Page-1" stroke="none" stroke-width="1" fill="none" fill-rule="evenodd">
        <g id="AymaraPeru">
            <g id="Group-8">
                <mask id="mask-2" fill="white">
                    <use xlink:href="#path-1"></use>
                </mask>
                <g id="Clip-2"></g>
                <path d="M177.61,82.393 C177.897,82.582 214.169,146.422 213.165,144.968 C214.169,146.422 185.247,146.422 184.815,144.968 C185.247,146.422 148.975,82.582 149.261,82.393 C148.975,82.582 98.841,-0.331 100.121,1.122 C98.841,-0.331 133.119,-0.331 133.72,1.122 C133.119,-0.331 163.541,50.23 163.539,50.682 C163.541,50.23 193.749,-0.331 193.149,1.122 C193.749,-0.331 228.027,-0.331 226.749,1.122 C228.027,-0.331 177.897,82.582 177.61,82.393" id="Fill-1" fill="#ffffff" mask="url(#mask-2)"></path>
                <path d="M82.415,59.091 C82.415,58.8 30.828,146.417 31.85,144.973 C30.828,146.417 -1.602,146.417 0.062,144.973 C-1.602,146.417 82.415,0.602 82.415,2.046 C82.415,0.602 166.433,146.417 164.769,144.973 C166.433,146.417 134.003,146.417 132.981,144.973 C134.003,146.417 82.415,58.8 82.415,59.091" id="Fill-3" fill="#ffffff" mask="url(#mask-2)"></path>
                <path d="M381.266,59.091 C381.266,58.8 329.679,146.417 330.7,144.973 C329.679,146.417 297.249,146.417 298.912,144.973 C297.249,146.417 381.266,0.602 381.266,2.046 C381.266,0.602 465.283,146.417 463.619,144.973 C465.283,146.417 432.853,146.417 431.832,144.973 C432.853,146.417 381.266,58.8 381.266,59.091" id="Fill-4" fill="#ffffff" mask="url(#mask-2)"></path>
                <path d="M662.329,59.091 C662.329,58.8 610.741,146.417 611.763,144.973 C610.741,146.417 578.312,146.417 579.976,144.973 C578.312,146.417 662.329,0.602 662.329,2.046 C662.329,0.602 746.346,146.417 744.683,144.973 C746.346,146.417 713.916,146.417 712.895,144.973 C713.916,146.417 662.329,58.8 662.329,59.091" id="Fill-5" fill="#ffffff" mask="url(#mask-2)"></path>
                <path d="M241.974,2.017 C241.229,0.573 241.229,146.418 241.974,144.973 C241.229,146.418 270.365,146.418 270.533,144.973 C270.365,146.418 270.365,75.586 270.533,75.545 C270.365,75.586 301.957,110.211 301.5,109.484 C301.957,110.211 316.526,84.925 315.781,84.699 C316.526,84.925 241.229,0.573 241.974,2.017" id="Fill-6" fill="#ffffff" mask="url(#mask-2)"></path>
                <path d="M510.714,29.496 C510.542,28.995 502.614,28.995 502.943,29.496 C502.614,28.995 502.614,79.556 502.943,79.055 C502.614,79.556 510.542,79.556 510.714,79.055 C524.467,79.556 535.82,68.199 535.491,54.273 C535.82,40.348 524.467,28.995 510.714,29.496 Z M535.539,144.968 C535.772,146.422 502.566,108.502 502.991,107.8 C502.566,108.502 502.566,146.422 502.991,144.968 C502.566,146.422 473.431,146.422 474.432,144.968 C473.431,146.422 473.431,-0.331 474.432,1.122 C473.431,-0.331 510.494,-0.331 510.762,1.122 C540.486,-0.331 564.908,24.096 564.099,54.461 C564.908,74.224 553.556,92.865 535.539,101.5 C535.772,102.074 574.55,146.422 573.549,144.968 C574.55,146.422 535.772,146.422 535.539,144.968 L535.539,144.968 Z" id="Fill-7" fill="#ffffff" mask="url(#mask-2)"></path>
            </g>
            <path d="M278.233,199.038 L276.132,199.038 L276.132,212.437 L278.233,212.437 C281.923,212.437 284.932,209.427 284.932,205.738 C284.932,202.049 281.923,199.038 278.233,199.038 Z M278.233,220.158 L276.132,220.158 L276.132,230.206 L268.412,230.206 L268.412,191.317 L278.233,191.317 C286.181,191.317 292.653,197.79 292.653,205.738 C292.653,213.686 286.181,220.158 278.233,220.158 L278.233,220.158 Z" id="Fill-9" fill="#ffffff"></path>
            <polyline id="Fill-10" fill="#ffffff" points="330.282 230.206 330.282 191.317 351.004 191.317 351.004 199.038 338.003 199.038 338.003 206.815 351.004 206.815 351.004 214.48 338.003 214.48 338.003 222.484 351.004 222.484 351.004 230.206 330.282 230.206"></polyline>
            <path d="M399.306,199.038 L397.205,199.038 L397.205,212.437 L399.306,212.437 C402.996,212.437 406.004,209.427 406.004,205.738 C406.004,202.049 402.996,199.038 399.306,199.038 Z M406.004,230.206 L397.205,220.158 L397.205,230.206 L389.484,230.206 L389.484,191.317 L399.306,191.317 C407.252,191.317 413.725,197.79 413.725,205.738 C413.725,211.074 410.717,216.012 406.004,218.453 L416.28,230.206 L406.004,230.206 L406.004,230.206 Z" id="Fill-11" fill="#ffffff"></path>
            <path d="M464.126,231 C457.372,231 451.922,225.551 451.922,218.795 L451.922,191.317 L459.643,191.317 L459.643,218.795 C459.643,221.292 461.629,223.337 464.126,223.337 C466.625,223.337 468.668,221.292 468.668,218.795 L468.668,191.317 L476.333,191.317 L476.333,218.795 C476.333,225.551 470.882,231 464.126,231" id="Fill-12" fill="#ffffff"></path>
        </g>
    </g>
</svg>
